<mxfile host="Electron" modified="2023-04-07T20:35:48.039Z" agent="Mozilla/5.0 (Macintosh; Intel Mac OS X 10_15_7) AppleWebKit/537.36 (KHTML, like Gecko) draw.io/21.1.2 Chrome/106.0.5249.199 Electron/21.4.3 Safari/537.36" etag="Z1x05NaQyR6PYEwbgWBF" version="21.1.2" type="device">
  <diagram name="Page-1" id="axdDBht8W-pveexq8fcM">
    <mxGraphModel dx="1333" dy="575" grid="1" gridSize="10" guides="1" tooltips="1" connect="1" arrows="1" fold="1" page="0" pageScale="1" pageWidth="850" pageHeight="1100" math="0" shadow="0">
      <root>
        <mxCell id="0" />
        <mxCell id="1" parent="0" />
        <mxCell id="UXpUNZmPd3_He0jHjvTJ-8" value="Data Sources in AWS" style="outlineConnect=0;gradientColor=none;html=1;whiteSpace=wrap;fontSize=12;fontStyle=0;strokeColor=#879196;fillColor=none;verticalAlign=top;align=center;fontColor=#879196;dashed=1;spacingTop=3;" vertex="1" parent="1">
          <mxGeometry x="590" y="50" width="140" height="270" as="geometry" />
        </mxCell>
        <mxCell id="UXpUNZmPd3_He0jHjvTJ-9" style="edgeStyle=orthogonalEdgeStyle;rounded=0;orthogonalLoop=1;jettySize=auto;html=1;startArrow=classic;startFill=1;" edge="1" parent="1" source="UXpUNZmPd3_He0jHjvTJ-2" target="UXpUNZmPd3_He0jHjvTJ-8">
          <mxGeometry relative="1" as="geometry" />
        </mxCell>
        <mxCell id="UXpUNZmPd3_He0jHjvTJ-2" value="Glue Job" style="sketch=0;points=[[0,0,0],[0.25,0,0],[0.5,0,0],[0.75,0,0],[1,0,0],[0,1,0],[0.25,1,0],[0.5,1,0],[0.75,1,0],[1,1,0],[0,0.25,0],[0,0.5,0],[0,0.75,0],[1,0.25,0],[1,0.5,0],[1,0.75,0]];outlineConnect=0;fontColor=#232F3E;gradientColor=#945DF2;gradientDirection=north;fillColor=#5A30B5;strokeColor=#ffffff;dashed=0;verticalLabelPosition=bottom;verticalAlign=top;align=center;html=1;fontSize=12;fontStyle=0;aspect=fixed;shape=mxgraph.aws4.resourceIcon;resIcon=mxgraph.aws4.glue;" vertex="1" parent="1">
          <mxGeometry x="400" y="88" width="78" height="78" as="geometry" />
        </mxCell>
        <mxCell id="UXpUNZmPd3_He0jHjvTJ-10" style="edgeStyle=orthogonalEdgeStyle;rounded=0;orthogonalLoop=1;jettySize=auto;html=1;startArrow=classic;startFill=1;" edge="1" parent="1" source="UXpUNZmPd3_He0jHjvTJ-3" target="UXpUNZmPd3_He0jHjvTJ-8">
          <mxGeometry relative="1" as="geometry" />
        </mxCell>
        <mxCell id="UXpUNZmPd3_He0jHjvTJ-3" value="Glue Job" style="sketch=0;points=[[0,0,0],[0.25,0,0],[0.5,0,0],[0.75,0,0],[1,0,0],[0,1,0],[0.25,1,0],[0.5,1,0],[0.75,1,0],[1,1,0],[0,0.25,0],[0,0.5,0],[0,0.75,0],[1,0.25,0],[1,0.5,0],[1,0.75,0]];outlineConnect=0;fontColor=#232F3E;gradientColor=#945DF2;gradientDirection=north;fillColor=#5A30B5;strokeColor=#ffffff;dashed=0;verticalLabelPosition=bottom;verticalAlign=top;align=center;html=1;fontSize=12;fontStyle=0;aspect=fixed;shape=mxgraph.aws4.resourceIcon;resIcon=mxgraph.aws4.glue;" vertex="1" parent="1">
          <mxGeometry x="400" y="210" width="78" height="78" as="geometry" />
        </mxCell>
        <mxCell id="UXpUNZmPd3_He0jHjvTJ-4" value="" style="sketch=0;points=[[0,0,0],[0.25,0,0],[0.5,0,0],[0.75,0,0],[1,0,0],[0,1,0],[0.25,1,0],[0.5,1,0],[0.75,1,0],[1,1,0],[0,0.25,0],[0,0.5,0],[0,0.75,0],[1,0.25,0],[1,0.5,0],[1,0.75,0]];outlineConnect=0;fontColor=#232F3E;gradientColor=#60A337;gradientDirection=north;fillColor=#277116;strokeColor=#ffffff;dashed=0;verticalLabelPosition=bottom;verticalAlign=top;align=center;html=1;fontSize=12;fontStyle=0;aspect=fixed;shape=mxgraph.aws4.resourceIcon;resIcon=mxgraph.aws4.s3;" vertex="1" parent="1">
          <mxGeometry x="621" y="98" width="78" height="78" as="geometry" />
        </mxCell>
        <mxCell id="UXpUNZmPd3_He0jHjvTJ-7" value="" style="sketch=0;points=[[0,0,0],[0.25,0,0],[0.5,0,0],[0.75,0,0],[1,0,0],[0,1,0],[0.25,1,0],[0.5,1,0],[0.75,1,0],[1,1,0],[0,0.25,0],[0,0.5,0],[0,0.75,0],[1,0.25,0],[1,0.5,0],[1,0.75,0]];outlineConnect=0;fontColor=#232F3E;gradientColor=#4D72F3;gradientDirection=north;fillColor=#3334B9;strokeColor=#ffffff;dashed=0;verticalLabelPosition=bottom;verticalAlign=top;align=center;html=1;fontSize=12;fontStyle=0;aspect=fixed;shape=mxgraph.aws4.resourceIcon;resIcon=mxgraph.aws4.dynamodb;" vertex="1" parent="1">
          <mxGeometry x="621" y="210" width="78" height="78" as="geometry" />
        </mxCell>
        <mxCell id="UXpUNZmPd3_He0jHjvTJ-12" style="edgeStyle=orthogonalEdgeStyle;rounded=0;orthogonalLoop=1;jettySize=auto;html=1;" edge="1" parent="1" source="UXpUNZmPd3_He0jHjvTJ-11" target="UXpUNZmPd3_He0jHjvTJ-2">
          <mxGeometry relative="1" as="geometry" />
        </mxCell>
        <mxCell id="UXpUNZmPd3_He0jHjvTJ-13" style="edgeStyle=orthogonalEdgeStyle;rounded=0;orthogonalLoop=1;jettySize=auto;html=1;" edge="1" parent="1" source="UXpUNZmPd3_He0jHjvTJ-11" target="UXpUNZmPd3_He0jHjvTJ-3">
          <mxGeometry relative="1" as="geometry" />
        </mxCell>
        <mxCell id="UXpUNZmPd3_He0jHjvTJ-11" value="Source Files" style="sketch=0;points=[[0,0,0],[0.25,0,0],[0.5,0,0],[0.75,0,0],[1,0,0],[0,1,0],[0.25,1,0],[0.5,1,0],[0.75,1,0],[1,1,0],[0,0.25,0],[0,0.5,0],[0,0.75,0],[1,0.25,0],[1,0.5,0],[1,0.75,0]];outlineConnect=0;fontColor=#232F3E;gradientColor=#60A337;gradientDirection=north;fillColor=#277116;strokeColor=#ffffff;dashed=0;verticalLabelPosition=bottom;verticalAlign=top;align=center;html=1;fontSize=12;fontStyle=0;aspect=fixed;shape=mxgraph.aws4.resourceIcon;resIcon=mxgraph.aws4.s3;" vertex="1" parent="1">
          <mxGeometry x="180" y="146" width="78" height="78" as="geometry" />
        </mxCell>
        <mxCell id="UXpUNZmPd3_He0jHjvTJ-16" style="edgeStyle=orthogonalEdgeStyle;rounded=0;orthogonalLoop=1;jettySize=auto;html=1;entryX=0;entryY=0.5;entryDx=0;entryDy=0;entryPerimeter=0;" edge="1" parent="1" source="UXpUNZmPd3_He0jHjvTJ-14" target="UXpUNZmPd3_He0jHjvTJ-11">
          <mxGeometry relative="1" as="geometry">
            <Array as="points">
              <mxPoint x="50" y="140" />
              <mxPoint x="50" y="185" />
            </Array>
          </mxGeometry>
        </mxCell>
        <mxCell id="UXpUNZmPd3_He0jHjvTJ-14" value="Developer" style="shape=actor;whiteSpace=wrap;html=1;verticalAlign=bottom;spacingBottom=-20;" vertex="1" parent="1">
          <mxGeometry x="-56" y="106" width="50" height="60" as="geometry" />
        </mxCell>
        <mxCell id="UXpUNZmPd3_He0jHjvTJ-17" value="Deploy using AWS CDK" style="edgeStyle=orthogonalEdgeStyle;rounded=0;orthogonalLoop=1;jettySize=auto;html=1;entryX=0;entryY=0.5;entryDx=0;entryDy=0;entryPerimeter=0;" edge="1" parent="1" source="UXpUNZmPd3_He0jHjvTJ-15" target="UXpUNZmPd3_He0jHjvTJ-11">
          <mxGeometry x="0.0848" relative="1" as="geometry">
            <Array as="points">
              <mxPoint x="50" y="231" />
              <mxPoint x="50" y="185" />
            </Array>
            <mxPoint as="offset" />
          </mxGeometry>
        </mxCell>
        <mxCell id="UXpUNZmPd3_He0jHjvTJ-15" value="CICD Pipeline" style="sketch=0;outlineConnect=0;fontColor=#232F3E;gradientColor=none;fillColor=#3F8624;strokeColor=none;dashed=0;verticalLabelPosition=bottom;verticalAlign=top;align=center;html=1;fontSize=12;fontStyle=0;aspect=fixed;pointerEvents=1;shape=mxgraph.aws4.iot_analytics_pipeline;" vertex="1" parent="1">
          <mxGeometry x="-70" y="216" width="78" height="42" as="geometry" />
        </mxCell>
      </root>
    </mxGraphModel>
  </diagram>
</mxfile>
